<svg width="158" height="31" viewBox="0 0 158 31" xmlns="http://www.w3.org/2000/svg"><g fill="none" fill-rule="evenodd"><path d="M8.493 30.836C3.46 28.363 0 23.246 0 17.331 0 8.997 6.82 2.404 15.29 2.404c3.068 0 6.389 1.76 6.389 1.76a13.202 13.202 0 0 0-5.659-1.265C8.804 2.9 2.955 8.656 2.955 15.753c0 5.092 3.009 9.492 7.373 11.574l-1.835 3.509" fill="#2773BA"/><path d="M23.526.652c5.035 2.474 8.492 7.592 8.492 13.505 0 8.334-6.82 14.932-15.29 14.932-3.066 0-6.388-1.765-6.388-1.765A13.159 13.159 0 0 0 16 28.59c7.216 0 13.064-5.754 13.064-12.852 0-5.092-3.009-9.491-7.373-11.572L23.526.652" fill="#00615E"/><path d="M37.87 10.122h7.625c2.1 0 4.168.665 4.168 2.939 0 1.641-.886 2.513-2.502 2.923v.034c1.686.223 2.728 1.519 2.728 2.718 0 3.005-2.467 3.314-4.986 3.314H37.87V10.122zm4.377 4.561h1.163c.816 0 1.703-.237 1.703-1.143 0-.891-.765-1.161-1.6-1.161h-1.267v2.304h.001zm0 4.907h1.217c.85 0 1.77-.307 1.77-1.23 0-1.024-.868-1.213-1.738-1.213h-1.249v2.443zm12.644-7.385h-4.376v-2.97h4.376v2.97zm-4.377.94h4.377v8.906h-4.377v-8.905zm10.317-.202c3.647 0 5.628 1.503 5.628 4.492 0 3.078-1.98 4.819-5.628 4.819-3.665 0-5.61-1.741-5.61-4.819 0-2.989 1.945-4.492 5.61-4.492zm0 6.749c.85 0 .972-.956.972-2.256 0-1.06-.121-1.933-.972-1.933-.85 0-.955.873-.955 1.933 0 1.3.104 2.256.955 2.256z" fill="#2773BA"/><path d="M67.67 10.122h6.879l1.58 6.527h.035l1.562-6.527h6.862v11.929H80.42l-.07-9.366h-.036l-2.38 9.366h-3.873l-2.31-9.366h-.07l-.052 9.366H67.67V10.122zm21.52 8.509c.07 1.11 1.13 1.369 2.414 1.369 1.199 0 2.275-.205 2.97-.563v2.305c-1.163.358-2.553.513-4.08.513-3.667 0-5.611-1.741-5.611-4.818 0-2.99 1.944-4.493 5.61-4.493 3.509 0 4.74 2.152 4.74 5.158v.529h-6.042zm2.257-1.88c0-.683-.102-1.758-1.093-1.758-1.008 0-1.234 1.06-1.18 1.758h2.273zm10.817 5.299v-1.623h-.038c-.605 1.334-1.492 1.827-2.918 1.827-2.899 0-3.976-2.221-3.976-4.802 0-2.408 1.128-4.508 3.855-4.508 1.165 0 2.05.39 2.728 1.347h.035V9.235h4.376V22.05h-4.062zm-1.305-6.443c-.92 0-1.076.923-1.076 1.845 0 .94.158 1.931 1.112 1.931.938 0 1.077-.99 1.077-1.828 0-1.025-.139-1.948-1.113-1.948z" fill="#00615E"/><path d="M119.864 21.307c-.589.313-1.716.607-3.136.607-2.825 0-5.527-1.825-5.527-5.976 0-3.476 2.234-6.12 5.908-6.12 1.49 0 2.356.334 2.72.525l-.279.695c-.587-.297-1.438-.505-2.424-.505-3.153 0-5.077 2.052-5.077 5.422 0 3.18 1.819 5.23 4.937 5.23 1.005 0 1.975-.208 2.633-.538l.245.66zm1.852-3.842c0 2.678 1.455 3.72 3.17 3.72 1.212 0 1.838-.244 2.304-.47l.208.662c-.312.175-1.16.538-2.616.538-2.39 0-3.881-1.754-3.881-4.205 0-2.78 1.594-4.519 3.742-4.519 2.72 0 3.241 2.572 3.241 3.773 0 .226 0 .365-.035.502h-6.133zm5.3-.658c.018-1.165-.466-2.939-2.476-2.939-1.837 0-2.633 1.652-2.771 2.939h5.248zm2.754-1.427c0-.764-.034-1.337-.07-1.998h.762l.069 1.513h.034c.451-.938 1.492-1.705 2.86-1.705.798 0 2.894.401 2.894 3.529v5.005h-.815v-4.936c0-1.512-.589-2.885-2.304-2.885-1.177 0-2.166.833-2.494 1.914-.07.207-.122.484-.122.745v5.162h-.814V15.38zm10.201-3.839v1.841h2.375v.662h-2.375v5.422c0 1.06.33 1.737 1.212 1.737.436 0 .746-.068.955-.14l.103.644c-.277.121-.657.208-1.16.208-.607 0-1.11-.208-1.42-.608-.382-.433-.52-1.13-.52-1.982v-5.281h-1.405v-.662h1.405v-1.529l.83-.312zm3.983 4.343c0-.832-.033-1.702-.067-2.501h.763l.034 1.686h.035c.362-1.042 1.23-1.879 2.373-1.879.103 0 .225.018.33.036v.8c-.124-.034-.244-.034-.4-.034-1.143 0-1.956.99-2.184 2.326a5.953 5.953 0 0 0-.069.801v4.605h-.815v-5.84zm10.05 3.857c0 .663.034 1.34.12 1.983h-.747l-.12-1.199h-.052c-.398.643-1.315 1.389-2.65 1.389-1.662 0-2.443-1.182-2.443-2.293 0-1.93 1.698-3.093 5.077-3.06v-.207c0-.835-.156-2.487-2.131-2.468-.728 0-1.49.191-2.08.626l-.26-.609c.746-.504 1.681-.713 2.427-.713 2.409 0 2.86 1.81 2.86 3.303l-.001 3.248zm-.816-2.484c-1.82-.051-4.21.226-4.21 2.225 0 1.2.797 1.738 1.663 1.738 1.387 0 2.166-.851 2.46-1.67.052-.173.087-.346.087-.501v-1.792zm3.288-7.871h.815v12.338h-.815z" stroke="#000" stroke-width=".5" fill="#000"/></g></svg>