<svg xmlns="http://www.w3.org/2000/svg" width="195" height="36.621" viewBox="0 0 195 36.621"><path fill="#002B5C" d="M28.871 28.101H5.213v-1.454h2.005c.351-4.712 4.861-6.466 7.368-10.275h-2.907c-1.403.501-3.509 3.608-3.509 5.413H4.511l.05-1.503-1.204 1.002L.15 17.575S0 17.374 0 17.224c0-.15.05-.251.05-.251l5.063-6.867.901-2.707 1.354-.501 1.403-1.955-.5-3.408c1.353-.501 2.657-.05 3.308.601.05-1.002-.05-2.105-.05-2.105 2.406-.25 3.257 1.053 3.659 2.506.651.05 1.253.15 1.805.251a.815.815 0 0 1 .752-.552c.451 0 .751.351.751.752v.201c1.053.351 2.056.852 2.958 1.403a.713.713 0 0 1 .601-.301c.451 0 .752.351.752.752 0 .201-.05.351-.15.452.852.702 1.554 1.554 2.206 2.456.1-.05.25-.101.351-.101.451 0 .802.351.802.752 0 .301-.15.551-.401.652.501.902.902 1.905 1.203 2.957.05-.05.15-.05.201-.05.451 0 .751.351.751.752s-.25.702-.551.752c.2 1.053.351 2.105.451 3.208.451 0 .801.351.801.752 0 .451-.351.751-.751.802 0 1.052-.05 2.206-.15 3.309.4.049.702.4.702.801s-.351.752-.802.752h-.05c-.2 1.103-.4 2.205-.651 3.358h2.105v1.454zm-3.609-1.404c2.908-11.979-.501-21.503-9.774-22.606.051.501.051.902.051 1.303 0 .602-.051 1.103-.051 1.103l-1.453-.251c.049-.501.15-3.91-1.053-4.661 0 0 0 1.804-.4 3.608l-1.354-.25c0-1.253-.551-1.754-1.303-2.105l.351 2.456-.853 1.254.401 1.152-2.656.903-.752 2.155-4.662 6.416 1.755 2.105 1.955-1.654.451.301v2.456h1.053c.451-1.754 1.904-3.81 3.258-4.812l-.752-.902 1.103-.953 1.053 1.303s3.759 0 3.759-.05c.551-1.203.902-2.656.902-4.36h1.454c0 5.714-2.857 7.97-6.416 11.479-1.303 1.303-2.457 2.706-2.607 4.611h16.54zM4.361 15.62c.05.651-.05 1.654-.401 2.155l-1.053-.401c.351-.501.552-1.203.552-1.804l.902.05zm5.764-5.564L7.87 11.259l-.15-1.854 2.356-.251.049.902z"/><path fill="#F58025" d="M28.871 35.519H5.213v-2.907h23.658v2.907z"/><path fill="#002B5C" d="M45.115 28.502c-1.905 0-3.409-.452-4.862-1.103-.3-1.303-.401-3.058-.501-4.862l1.153-.2c.651 2.456 1.554 4.862 4.561 4.862 2.105 0 3.358-1.303 3.358-3.258 0-5.163-8.571-4.01-8.571-9.975 0-2.707 2.206-5.163 6.115-5.163 1.304 0 2.707.351 4.11.852.1 1.053.2 2.256.25 4.361l-1.052.05c-.501-1.755-1.303-3.91-3.859-3.91-1.905 0-2.857 1.303-2.857 2.857 0 4.762 8.721 3.759 8.721 9.975 0 2.957-2.656 5.514-6.566 5.514zm14.285-.201c-.802-.05-1.454-.201-1.855-.351v4.711c0 1.705.201 1.855 2.506 2.055v.952h-7.067v-.952c1.805-.2 1.955-.351 1.955-2.055V19.279c0-1.754-.05-1.805-1.754-1.955v-.852c1.503-.3 2.907-.752 4.36-1.253v1.904l2.707-1.403c.351-.2.702-.25 1.052-.25 3.108 0 4.862 2.706 4.862 5.313.001 4.21-3.006 7.067-6.766 7.518zm.652-10.977c-.802 0-1.854.552-2.506.953v7.418c.552.602 1.454 1.053 2.557 1.053 1.454 0 3.358-1.103 3.358-4.862-.001-3.159-1.505-4.562-3.409-4.562zm15.638 1.253c-.3-.401-.702-.501-1.203-.501-.651 0-1.454.752-2.005 2.306v4.662c0 1.704.201 1.855 2.356 2.005v1.002h-6.817v-1.002c1.705-.15 1.905-.301 1.905-2.005V19.38c0-1.705-.15-1.705-1.705-2.005v-.852c1.504-.301 2.958-.602 4.26-1.103v3.007h.05c.902-1.654 2.156-2.957 3.308-2.957 1.003 0 1.705.751 1.705 1.554.001 1.152-1.202 2.155-1.854 1.553zm9.574 9.473h-6.416v-1.002c1.704-.15 1.955-.301 1.955-2.105v-5.414c0-1.955-.15-1.955-1.805-2.155v-.852c1.554-.301 3.107-.652 4.36-1.103v9.523c0 1.804.15 1.955 1.905 2.105v1.003zm-3.308-15.287a1.69 1.69 0 0 1-1.704-1.705c0-1.002.752-1.754 1.704-1.754 1.003 0 1.754.752 1.754 1.754 0 .953-.752 1.705-1.754 1.705zm18.646 15.287h-5.915v-1.002c1.403-.15 1.604-.301 1.604-1.905v-4.912c0-1.805-.802-2.908-2.306-2.908-.953 0-2.055.702-2.807 1.403v6.416c0 1.604.151 1.755 1.554 1.905v1.002h-6.115v-1.002c1.704-.15 1.955-.301 1.955-1.905v-5.764c0-1.705-.1-1.805-1.604-2.005v-.852c1.504-.301 2.908-.602 4.21-1.103v2.005c.652-.551 2.556-1.955 4.01-1.955 2.255 0 3.659 1.554 3.659 3.859v5.814c0 1.604.25 1.755 1.755 1.905v1.004zm14.284-11.929c-.2.451-.751 1.303-1.203 1.554l-1.454-.15c.401.551.702 1.654.702 2.506 0 3.058-2.756 4.712-5.263 4.712-.15 0-.551-.05-.902-.05-.602.2-1.103.902-1.103 1.353s.451 1.003 1.654 1.003h3.007c1.754 0 4.11.852 4.11 3.659 0 3.208-3.358 5.914-7.268 5.914-3.409 0-5.213-2.104-5.213-3.809 0-1.103.551-1.955 2.907-3.759-.853-.301-2.356-1.153-2.256-2.757 1.153-.501 2.206-1.403 2.656-1.955-1.353-.452-2.606-2.055-2.606-3.859 0-3.258 2.907-5.012 5.313-5.012 1.052 0 2.055.25 2.907.702 1.303-.05 2.606-.201 3.81-.351l.202.299zm-3.959 13.433c-.702-.251-1.654-.301-3.208-.301-2.155 0-3.108 1.604-3.108 2.808 0 1.704 1.504 3.007 3.759 3.007 2.506 0 3.91-1.654 3.91-3.308 0-1.053-.601-1.905-1.353-2.206zm-3.208-12.882c-1.052 0-2.256 1.103-2.256 3.208s1.103 3.609 2.607 3.609c1.102 0 2.155-.953 2.155-3.258.001-1.955-.952-3.559-2.506-3.559zm17.693 4.411c-.451.05-3.909.301-7.067.401.1 3.308 2.055 4.711 4.01 4.711 1.102 0 1.904-.3 2.907-1.303l.652.902c-1.654 2.055-3.609 2.556-4.511 2.556-3.559 0-5.614-2.707-5.614-5.914 0-3.91 2.958-6.967 5.915-6.967 2.456 0 4.411 2.105 4.411 4.461-.001.752-.151 1.053-.703 1.153zm-4.26-4.36c-1.152 0-2.356 1.253-2.656 3.408l4.311-.1c.551 0 .651-.15.651-.651 0-1.355-.952-2.657-2.306-2.657zm14.435 1.854a1.71 1.71 0 0 0-1.203-.501c-.651 0-1.504.752-2.055 2.306v4.662c0 1.704.2 1.855 2.355 2.005v1.002h-6.867v-1.002c1.754-.15 1.905-.301 1.905-2.005V19.38c0-1.705-.1-1.705-1.704-2.005v-.852c1.604-.301 3.007-.602 4.311-1.103v3.007h.049c.852-1.654 2.105-2.957 3.309-2.957.952 0 1.704.751 1.704 1.554.001 1.152-1.252 2.155-1.804 1.553zm6.53.752c0-6.065 3.357-9.323 7.568-9.323 4.16 0 7.317 3.208 7.317 9.022 0 6.366-3.609 9.323-7.568 9.323-4.059 0-7.317-3.158-7.317-9.022zm1.353 0c0 3.759 2.005 7.919 6.015 7.919h.051c4.061 0 6.015-4.061 6.015-8.17 0-3.608-1.755-7.97-6.015-7.97-4.262 0-6.066 4.211-6.066 8.221zm18.196 6.967v6.716h-1.403V19.629c0-1.704-.051-2.857-.101-3.91h1.303l.101 2.056c.952-1.604 2.405-2.306 4.21-2.306 3.008 0 5.163 2.406 5.163 6.266 0 4.46-2.606 6.566-5.464 6.566-1.654 0-3.057-.752-3.809-2.005zm.1-6.667c-.05.351-.1.702-.1 1.053v2.607c0 .3 0 .651.1.952.501 2.005 2.056 2.958 3.659 2.958 2.707 0 4.11-2.306 4.11-5.414 0-2.707-1.354-5.263-4.061-5.263-1.653 0-3.257 1.353-3.708 3.107zm12.584 2.056c.049 4.16 2.153 5.463 4.511 5.463 1.554 0 2.455-.3 3.207-.702l.301 1.053c-.601.351-1.854.752-3.71.752-3.559 0-5.663-2.606-5.663-6.165 0-4.061 2.256-6.616 5.413-6.616 3.859 0 4.611 3.559 4.611 5.413 0 .301 0 .551-.05.802h-8.62zm.098-1.053h7.168c0-2.055-.952-4.11-3.407-4.11-2.407 0-3.56 2.205-3.761 4.11zm19.198 7.418v-7.468c0-2.105-.752-3.96-3.157-3.96a3.537 3.537 0 0 0-3.409 2.657c-.099.301-.149.702-.149 1.103v7.669h-1.403v-9.373c0-1.204-.051-1.905-.101-2.958h1.303l.05 1.955c.702-1.253 2.206-2.205 4.011-2.205 1.403 0 4.21.702 4.21 4.861v7.719h-1.355z"/></svg>